<svg version="1.1" id="Capa_1" xmlns="http://www.w3.org/2000/svg" xmlns:xlink="http://www.w3.org/1999/xlink" x="0px" y="0px"
	 width="30" height="30" viewBox="0 0 156.316 155.384" style="enable-background:new 0 0 156.316 155.384;"
	 xml:space="preserve">
<radialGradient id="SVGID_1_" cx="357.542" cy="692.4385" r="107.1147" gradientTransform="matrix(-0.9439 -0.3301 0.3301 -0.9439 213.7906 775.3475)" gradientUnits="userSpaceOnUse">
	<stop  offset="0" style="stop-color:#009FE3"/>
	<stop  offset="1" style="stop-color:#454C9B"/>
</radialGradient>
<path style="fill:url(#SVGID_1_);" d="M5.375,52.052C19.537,11.56,63.841-9.786,104.333,4.376
	c40.493,14.158,61.84,58.464,47.678,98.958c-14.159,40.492-58.465,61.838-98.957,47.678C12.561,136.851-8.786,92.544,5.375,52.052z"
	/>
<g>
	<g style="enable-background:new    ;">
		<g style="enable-background:new    ;">
			<g>
				<path style="fill:#FFFFFF;" d="M85.256,0.533l-2.68-0.169c-2.443-0.127-4.439,0.402-5.869,1.662
					c-7.546,6.652,3.61,31.115,24.918,54.641c21.309,23.524,44.701,37.206,52.247,30.553c1.466-1.291,2.226-3.256,2.343-5.754
					l0.061-1.482l0.039-2.639c0.023,2.772-0.702,4.932-2.256,6.301c-7.216,6.361-29.582-6.719-49.957-29.213
					C83.729,31.938,73.062,8.548,80.277,2.188c1.501-1.323,3.657-1.805,6.315-1.536L85.256,0.533"/>
				<path style="fill:#FFFFFF;" d="M67.331,2.097c-0.153,0.114-0.303,0.233-0.446,0.36c-1.004,0.885-1.71,2.056-2.134,3.474
					c1.131-0.158,2.268-0.293,3.406-0.402c0.411-1.374,1.094-2.507,2.066-3.363c0.139-0.123,0.283-0.238,0.433-0.348
					C69.544,1.885,68.436,1.979,67.331,2.097"/>
				<path style="fill:#FFFFFF;" d="M64.282,10.351c0.083,2.1,0.515,4.482,1.272,7.093c1.124-0.276,2.25-0.532,3.381-0.769
					c-0.733-2.528-1.152-4.836-1.233-6.868C66.56,9.965,65.418,10.146,64.282,10.351"/>
				<path style="fill:#FFFFFF;" d="M67.75,23.569c1.223,2.919,2.753,6.027,4.566,9.271c1.055-0.434,2.11-0.854,3.167-1.259
					c-1.755-3.141-3.237-6.149-4.421-8.976C69.955,22.908,68.851,23.23,67.75,23.569"/>
				<path style="fill:#FFFFFF;" d="M77.126,40.753c2.244,3.424,4.751,6.942,7.498,10.499c0.926-0.624,1.852-1.239,2.773-1.845
					c-2.658-3.444-5.086-6.85-7.258-10.166C79.136,39.732,78.131,40.237,77.126,40.753"/>
				<path style="fill:#FFFFFF;" d="M90.104,58.024c1.427,1.683,2.903,3.369,4.425,5.05c1.719,1.898,3.451,3.738,5.188,5.517
					c0.771-0.803,1.537-1.602,2.294-2.396c-1.681-1.722-3.356-3.504-5.022-5.341c-1.474-1.628-2.902-3.26-4.283-4.89
					C91.842,56.644,90.975,57.329,90.104,58.024"/>
				<path style="fill:#FFFFFF;" d="M106.444,75.155c3.271,3.036,6.524,5.829,9.707,8.35c0.604-0.955,1.194-1.912,1.771-2.869
					c-3.082-2.442-6.231-5.147-9.398-8.086C107.841,73.416,107.147,74.284,106.444,75.155"/>
				<path style="fill:#FFFFFF;" d="M98.429,97.818c3.09,2.621,6.141,5.037,9.121,7.229c0.984-1.242,1.945-2.502,2.885-3.771
					c-2.916-2.143-5.902-4.508-8.926-7.074C100.497,95.416,99.471,96.621,98.429,97.818"/>
				<path style="fill:#FFFFFF;" d="M71.625,0.63c-0.368,0.029-0.724,0.075-1.067,0.136c1.072-0.105,2.146-0.185,3.222-0.238
					c0.507-0.091,1.041-0.145,1.6-0.162L71.625,0.63"/>
				<path style="fill:#FFFFFF;" d="M60.121,2.604c-1.289,0.322-2.404,0.882-3.324,1.693c-9.084,8.006,4.345,37.453,29.995,65.771
					c22.232,24.545,46.348,40.186,58.295,38.704c0.307-0.787,0.602-1.58,0.885-2.379c-11.741,1.457-35.441-13.914-57.289-38.036
					C63.476,40.528,50.278,11.591,59.205,3.722c1.001-0.881,2.238-1.462,3.68-1.756L60.121,2.604"/>
				<path style="fill:#FFFFFF;" d="M118.645,112.359c2.737,1.578,5.358,2.906,7.831,3.963c0.857-1.318,1.684-2.656,2.476-4.016
					c-2.419-1.033-4.984-2.332-7.661-3.877C120.437,109.755,119.555,111.066,118.645,112.359"/>
				<path style="fill:#FFFFFF;" d="M46.997,7.398c-0.178,0.131-0.349,0.27-0.515,0.414c-2.43,2.142-3.344,5.729-2.916,10.378
					c1.162-0.551,2.335-1.073,3.521-1.568c-0.42-4.565,0.477-8.089,2.864-10.192c0.163-0.144,0.331-0.279,0.505-0.408
					C49.292,6.448,48.14,6.908,46.997,7.398"/>
				<path style="fill:#FFFFFF;" d="M134.294,118.458c4.688,0.971,8.443,0.488,10.893-1.672c0.146-0.129,0.286-0.262,0.422-0.402
					c0.599-1.092,1.167-2.195,1.705-3.316c-0.133,0.137-0.271,0.27-0.414,0.396c-2.408,2.119-6.096,2.596-10.7,1.641
					C135.591,116.238,134.956,117.355,134.294,118.458"/>
				<path style="fill:#FFFFFF;" d="M136.11,129.621c0.222-0.195,0.43-0.404,0.628-0.621l2.003-2.33
					c-0.26,0.313-0.541,0.605-0.848,0.875C137.315,128.246,136.72,128.937,136.11,129.621"/>
				<path style="fill:#FFFFFF;" d="M33.506,15.094c-0.231,0.163-0.453,0.339-0.666,0.525c-0.082,0.073-0.162,0.146-0.24,0.222
					c0.738-0.543,1.485-1.069,2.238-1.578c0.078-0.074,0.157-0.147,0.238-0.219c0.292-0.258,0.604-0.492,0.931-0.706L33.506,15.094"
					/>
				<path style="fill:#FFFFFF;" d="M39.934,10.868c-0.483,0.272-0.931,0.59-1.343,0.952c-9.96,8.779,4.764,41.066,32.888,72.117
					c28.124,31.051,58.998,49.105,68.958,40.326c0.436-0.383,0.822-0.811,1.164-1.281l1.617-2.311
					c-0.381,0.57-0.825,1.08-1.334,1.529c-9.888,8.715-40.537-9.207-68.456-40.031C45.51,51.346,30.893,19.294,40.78,10.579
					c0.484-0.426,1.017-0.788,1.597-1.088L39.934,10.868"/>
				<path style="fill:#FFFFFF;" d="M67.644,90.609c3.924,4.25,7.893,8.246,11.843,11.957c0.769-0.734,1.535-1.473,2.299-2.215
					c-3.931-3.689-7.88-7.668-11.785-11.896C69.216,89.173,68.429,89.892,67.644,90.609"/>
				<path style="fill:#FFFFFF;" d="M88.783,110.792c3.884,3.23,7.7,6.143,11.389,8.701c0.742-0.758,1.474-1.523,2.196-2.299
					c-3.67-2.547-7.469-5.443-11.332-8.658C90.291,109.296,89.54,110.048,88.783,110.792"/>
				<path style="fill:#FFFFFF;" d="M108.089,124.558c3.467,2.018,6.761,3.654,9.816,4.875c0.717-0.768,1.421-1.551,2.108-2.346
					c-3.041-1.215-6.317-2.846-9.768-4.854C109.538,123.019,108.819,123.792,108.089,124.558"/>
				<path style="fill:#FFFFFF;" d="M124.667,131.527c2.644,0.541,5.002,0.635,7.014,0.25c0.699-0.773,1.379-1.561,2.041-2.359
					c-2.003,0.385-4.35,0.289-6.98-0.248C126.066,129.968,125.375,130.753,124.667,131.527"/>
				<path style="fill:#FFFFFF;" d="M30.61,18.596c-0.796,1.767-1.14,3.94-1.063,6.456c0.837-0.628,1.687-1.238,2.546-1.829
					c-0.077-2.504,0.266-4.667,1.058-6.425C32.293,17.377,31.446,17.976,30.61,18.596"/>
				<path style="fill:#FFFFFF;" d="M30.242,30.446c0.621,2.938,1.646,6.176,3.043,9.65c0.832-0.649,1.675-1.283,2.528-1.905
					c-1.391-3.456-2.41-6.679-3.028-9.603C31.926,29.19,31.078,29.81,30.242,30.446"/>
				<path style="fill:#FFFFFF;" d="M35.938,46.057c1.802,3.714,3.961,7.629,6.45,11.678c0.82-0.673,1.648-1.336,2.483-1.992
					c-2.476-4.029-4.625-7.924-6.417-11.621C37.604,44.754,36.766,45.399,35.938,46.057"/>
				<path style="fill:#FFFFFF;" d="M49.345,68.203c3.018,4.228,6.337,8.535,9.931,12.859c0.797-0.705,1.597-1.408,2.399-2.108
					c-3.575-4.301-6.879-8.589-9.881-12.795C50.972,66.834,50.156,67.516,49.345,68.203"/>
				<path style="fill:#FFFFFF;" d="M151.656,104.041c0.071-0.17,0.137-0.342,0.198-0.52l1.06-3.207
					c-0.101,0.338-0.216,0.666-0.346,0.979C152.284,102.212,151.979,103.13,151.656,104.041"/>
				<path style="fill:#FFFFFF;" d="M144.135,98.619c3.558,0.557,6.425,0.053,8.356-1.648c0.788-0.695,1.392-1.564,1.82-2.592
					c0.211-1.068,0.396-2.141,0.557-3.217c-0.414,0.994-1,1.836-1.763,2.51c-1.87,1.646-4.646,2.133-8.089,1.596
					C144.744,96.39,144.45,97.507,144.135,98.619"/>
				<path style="fill:#FFFFFF;" d="M64.816,101.74c1.521,1.564,3.045,3.09,4.569,4.572c0.625-0.559,1.254-1.127,1.887-1.699
					c0.64-0.582,1.279-1.168,1.917-1.756c-1.524-1.482-3.049-3.008-4.569-4.572c-0.64,0.586-1.28,1.17-1.92,1.752
					C66.066,100.611,65.439,101.179,64.816,101.74"/>
				<path style="fill:#FFFFFF;" d="M72.991,109.746c1.52,1.416,3.039,2.789,4.549,4.119c0.629-0.557,1.259-1.123,1.892-1.697
					c0.64-0.582,1.277-1.168,1.911-1.758c-1.51-1.33-3.028-2.703-4.549-4.119c-0.637,0.588-1.275,1.174-1.916,1.754
					C74.245,108.621,73.616,109.187,72.991,109.746"/>
				<path style="fill:#FFFFFF;" d="M80.865,116.724c1.5,1.262,2.99,2.475,4.468,3.643c0.631-0.555,1.262-1.119,1.896-1.693
					c0.64-0.582,1.276-1.17,1.908-1.764c-1.479-1.166-2.97-2.381-4.468-3.643c-0.634,0.594-1.271,1.18-1.911,1.762
					C82.126,115.603,81.493,116.167,80.865,116.724"/>
				<path style="fill:#FFFFFF;" d="M88.805,123.035c1.456,1.088,2.896,2.125,4.316,3.111c0.635-0.551,1.269-1.113,1.901-1.689
					c0.641-0.582,1.273-1.17,1.902-1.766c-1.421-0.986-2.861-2.023-4.316-3.113c-0.63,0.594-1.266,1.184-1.906,1.766
					C90.07,121.917,89.437,122.48,88.805,123.035"/>
				<path style="fill:#FFFFFF;" d="M37.779,68.353c1.041,1.59,2.13,3.196,3.263,4.815c0.613-0.572,1.237-1.146,1.869-1.721
					c0.64-0.582,1.285-1.16,1.935-1.734c-1.133-1.619-2.222-3.227-3.263-4.815c-0.651,0.572-1.297,1.148-1.938,1.73
					C39.014,67.203,38.391,67.778,37.779,68.353"/>
				<path style="fill:#FFFFFF;" d="M43.342,76.385c1.194,1.636,2.432,3.283,3.712,4.937c0.616-0.57,1.24-1.141,1.873-1.717
					c0.641-0.582,1.284-1.16,1.932-1.738c-1.281-1.655-2.519-3.302-3.713-4.938c-0.648,0.576-1.293,1.155-1.933,1.735
					C44.579,75.239,43.956,75.812,43.342,76.385"/>
				<path style="fill:#FFFFFF;" d="M49.212,84.066c1.327,1.662,2.696,3.326,4.104,4.992c0.618-0.564,1.243-1.135,1.876-1.711
					c0.64-0.582,1.282-1.162,1.927-1.744c-1.409-1.666-2.776-3.33-4.104-4.992c-0.646,0.578-1.29,1.158-1.929,1.74
					C50.454,82.927,49.829,83.498,49.212,84.066"/>
				<path style="fill:#FFFFFF;" d="M56.958,93.269c0.627,0.709,1.261,1.418,1.902,2.125c0.866,0.955,1.735,1.9,2.605,2.83
					c0.622-0.563,1.249-1.131,1.882-1.705c0.64-0.582,1.28-1.164,1.922-1.75c-0.871-0.93-1.739-1.875-2.605-2.832
					c-0.64-0.707-1.274-1.414-1.901-2.123c-0.643,0.582-1.285,1.164-1.925,1.744C58.204,92.136,57.578,92.705,56.958,93.269"/>
				<path style="fill:#FFFFFF;" d="M11.743,39.621c-11.515,27.612,71.318,118.97,98.479,108.615l3.611-1.695
					C81.052,157.939,3.763,60.785,13.107,37.517c0.169-0.421,0.482-0.942,0.689-1.345L11.743,39.621"/>
				<path style="fill:#FFFFFF;" d="M18.732,29.241c0.508-0.634,1.027-1.263,1.56-1.881l0.197-0.235L18.732,29.241"/>
				<path style="fill:#FFFFFF;" d="M83.288,129.994c3.714,2.703,7.314,5.063,10.741,7.045c0.897-0.625,1.794-1.277,2.687-1.953
					c-3.449-1.996-7.074-4.371-10.813-7.092C85.03,128.683,84.158,129.349,83.288,129.994"/>
				<path style="fill:#FFFFFF;" d="M100.55,140.451c3.172,1.469,6.129,2.537,8.81,3.17c0.938-0.609,1.868-1.248,2.789-1.91
					c-2.699-0.635-5.676-1.709-8.868-3.189C102.375,139.189,101.466,139.833,100.55,140.451"/>
				<path style="fill:#FFFFFF;" d="M113.542,144.257c2.357,0.137,4.405-0.184,6.082-0.998c0.964-0.609,1.917-1.246,2.857-1.912
					c-1.688,0.82-3.749,1.143-6.122,1.006C115.429,143.015,114.49,143.65,113.542,144.257"/>
				<path style="fill:#FFFFFF;" d="M55.253,126.925c3.623,3.291,7.217,6.311,10.726,9.023c0.809-0.426,1.625-0.869,2.447-1.336
					c-3.575-2.764-7.238-5.842-10.931-9.195C56.739,125.937,55.992,126.439,55.253,126.925"/>
				<path style="fill:#FFFFFF;" d="M20.292,27.36c-0.532,0.618-1.052,1.247-1.56,1.881l-0.682,0.865
					c-1.098,1.414-1.757,3.236-2.005,5.405c0.695-0.89,1.417-1.768,2.165-2.631c0.256-2.233,0.944-4.102,2.096-5.537
					C20.301,27.349,20.296,27.354,20.292,27.36"/>
				<path style="fill:#FFFFFF;" d="M20.351,54.881c1.505,3.517,3.375,7.256,5.582,11.154c0.722-0.812,1.466-1.621,2.232-2.427
					c-2.221-3.924-4.104-7.688-5.619-11.229C21.79,53.208,21.058,54.041,20.351,54.881"/>
				<path style="fill:#FFFFFF;" d="M32.206,76.182c2.752,4.119,5.816,8.341,9.161,12.607c0.762-0.754,1.541-1.51,2.335-2.275
					c-3.367-4.291-6.452-8.543-9.223-12.69C33.701,74.611,32.943,75.398,32.206,76.182"/>
				<path style="fill:#FFFFFF;" d="M92.084,151.177c0.681,0.182,1.345,0.334,1.988,0.457c1.467-0.451,2.926-0.957,4.374-1.52
					c-0.661-0.125-1.344-0.281-2.043-0.467C94.97,150.212,93.53,150.724,92.084,151.177"/>
				<path style="fill:#FFFFFF;" d="M95.319,151.835c0.62,0.084,1.218,0.139,1.797,0.16c1.496-0.447,2.982-0.949,4.459-1.51
					c-0.594-0.021-1.21-0.076-1.846-0.162C98.269,150.884,96.799,151.388,95.319,151.835"/>
				<path style="fill:#FFFFFF;" d="M98.056,152.003c0.553-0.012,1.086-0.053,1.596-0.127c1.523-0.449,3.035-0.953,4.532-1.514
					c-0.525,0.076-1.074,0.119-1.643,0.133C101.057,151.054,99.561,151.558,98.056,152.003"/>
				<path style="fill:#FFFFFF;" d="M100.896,151.619c0.044-0.012,0.088-0.025,0.133-0.037l5.136-1.705
					c-0.229,0.082-0.463,0.158-0.704,0.223C103.952,150.662,102.43,151.169,100.896,151.619"/>
				<path style="fill:#FFFFFF;" d="M6.789,55.977c0.073,0.663,0.173,1.348,0.301,2.053c0.592-1.392,1.239-2.772,1.94-4.139
					c-0.131-0.726-0.234-1.428-0.31-2.109C8.022,53.165,7.378,54.564,6.789,55.977"/>
				<path style="fill:#FFFFFF;" d="M7.442,59.734C7.612,60.47,7.809,61.226,8.031,62c0.602-1.352,1.257-2.694,1.967-4.027
					c-0.229-0.796-0.43-1.572-0.604-2.33C8.688,56.995,8.038,58.359,7.442,59.734"/>
				<path style="fill:#FFFFFF;" d="M8.565,63.743c0.261,0.8,0.547,1.618,0.858,2.452c0.615-1.31,1.284-2.613,2.006-3.91
					c-0.32-0.857-0.614-1.698-0.882-2.521C9.833,61.082,9.172,62.409,8.565,63.743"/>
				<path style="fill:#FFFFFF;" d="M10.208,68.204c0.351,0.859,0.726,1.734,1.125,2.624c0.635-1.263,1.322-2.523,2.06-3.78
					c-0.411-0.915-0.796-1.814-1.157-2.697C11.507,65.631,10.832,66.915,10.208,68.204"/>
				<path style="fill:#FFFFFF;" d="M7.473,48.555c-0.051,0.128-0.101,0.259-0.147,0.392c0.594-1.482,1.244-2.947,1.947-4.392
					c0.118-0.34,0.253-0.665,0.402-0.977L7.473,48.555"/>
				<path style="fill:#FFFFFF;" d="M7.083,49.741c-0.13,0.494-0.231,1.013-0.303,1.558c0.588-1.459,1.232-2.903,1.932-4.327
					c0.074-0.56,0.177-1.093,0.311-1.601C8.322,46.809,7.675,48.268,7.083,49.741"/>
				<path style="fill:#FFFFFF;" d="M6.658,52.723c-0.023,0.585-0.019,1.192,0.013,1.823c0.588-1.426,1.231-2.839,1.929-4.236
					c-0.033-0.646-0.038-1.273-0.013-1.873C7.889,49.85,7.247,51.278,6.658,52.723"/>
				<path style="fill:#FFFFFF;" d="M30.728,100.558c3.021,3.836,6.287,7.705,9.774,11.557c0.11,0.121,0.22,0.242,0.331,0.363
					c0.641-0.582,1.297-1.178,1.967-1.783c-0.112-0.123-0.224-0.248-0.336-0.371c-3.553-3.924-6.882-7.867-9.96-11.777
					C31.894,99.226,31.302,99.896,30.728,100.558"/>
				<path style="fill:#FFFFFF;" d="M4.496,57.562c-2.742,11.063,9.782,35.446,31.127,59.012
					c21.507,23.744,44.852,38.805,56.213,37.096l2.785-0.51c-11.415,2.201-35.535-13.232-57.735-37.74
					C14.858,91.097,2.045,65.926,5.264,54.847L4.496,57.562"/>
				<path style="fill:#FFFFFF;" d="M1.981,74.848L1.944,77.31c0.063,10.125,10.115,28.417,26.179,46.153
					c16.216,17.902,33.688,29.863,43.84,30.867l1.17,0.104l2.843,0.176c-10.493-0.525-29.219-13.174-46.57-32.332
					C12.161,103.24,1.542,83.587,2.051,73.193L1.981,74.848"/>
				<path style="fill:#FFFFFF;" d="M42.343,130.89c1.539,1.447,3.073,2.842,4.599,4.178c0.953-0.396,1.929-0.83,2.927-1.305
					c-1.599-1.4-3.207-2.859-4.818-4.377C44.123,129.925,43.22,130.427,42.343,130.89"/>
				<path style="fill:#FFFFFF;" d="M50.534,138.117c1.508,1.24,3.003,2.422,4.479,3.541c1.087-0.283,2.192-0.613,3.313-0.99
					c-1.546-1.17-3.112-2.408-4.694-3.709C52.579,137.388,51.546,137.773,50.534,138.117"/>
				<path style="fill:#FFFFFF;" d="M58.244,144.023c1.445,1.021,2.867,1.977,4.259,2.863c1.212-0.197,2.437-0.443,3.672-0.74
					c-1.459-0.928-2.949-1.928-4.463-2.998C60.542,143.486,59.385,143.779,58.244,144.023"/>
				<path style="fill:#FFFFFF;" d="M65.745,148.851c1.343,0.773,2.653,1.475,3.924,2.1c1.331-0.129,2.67-0.309,4.015-0.543
					c-1.332-0.656-2.704-1.391-4.112-2.201C68.288,148.472,67.011,148.687,65.745,148.851"/>
				<path style="fill:#FFFFFF;" d="M14.426,97.705c1.033,1.602,2.125,3.225,3.276,4.863c0.466-0.934,0.976-1.889,1.53-2.859
					c-1.206-1.717-2.352-3.418-3.433-5.094C15.294,95.66,14.837,96.691,14.426,97.705"/>
				<path style="fill:#FFFFFF;" d="M20.049,105.826c1.226,1.656,2.508,3.328,3.844,5.004c0.568-0.797,1.177-1.617,1.825-2.463
					c-1.4-1.758-2.743-3.508-4.027-5.246C21.101,104.042,20.553,104.945,20.049,105.826"/>
				<path style="fill:#FFFFFF;" d="M26.153,113.615c1.394,1.68,2.839,3.367,4.333,5.049c0.679-0.664,1.393-1.363,2.141-2.088
					c-1.566-1.764-3.081-3.529-4.541-5.293C27.404,112.085,26.76,112.863,26.153,113.615"/>
				<path style="fill:#FFFFFF;" d="M34.331,122.867c1.531,1.629,3.07,3.207,4.609,4.734c0.819-0.518,1.668-1.072,2.545-1.66
					c-1.613-1.602-3.225-3.256-4.831-4.961C35.848,121.642,35.073,122.271,34.331,122.867"/>
			</g>
		</g>
	</g>
</g>
</svg>