<?xml version="1.0" encoding="iso-8859-1"?>
<!-- Generator: Adobe Illustrator 16.0.3, SVG Export Plug-In . SVG Version: 6.00 Build 0)  -->
<!DOCTYPE svg PUBLIC "-//W3C//DTD SVG 1.1//EN" "http://www.w3.org/Graphics/SVG/1.1/DTD/svg11.dtd">
<svg version="1.1" id="Capa_1" xmlns="http://www.w3.org/2000/svg" xmlns:xlink="http://www.w3.org/1999/xlink" x="0px" y="0px"
	 width="552.536px" height="172.222px" viewBox="0 0 552.536 172.222" style="enable-background:new 0 0 552.536 172.222;"
	 xml:space="preserve">
<radialGradient id="SVGID_1_" cx="186.1367" cy="44.6836" r="107.1154" gradientTransform="matrix(-0.9439 -0.3301 0.3301 -0.9439 264.8253 116.0287)" gradientUnits="userSpaceOnUse">
	<stop  offset="0" style="stop-color:#009FE3"/>
	<stop  offset="1" style="stop-color:#454C9B"/>
</radialGradient>
<path style="fill:url(#SVGID_1_);" d="M4.375,60.73c14.162-40.492,58.465-61.838,98.958-47.676
	c40.493,14.158,61.839,58.464,47.678,98.958c-14.16,40.492-58.465,61.838-98.958,47.678C11.561,145.529-9.786,101.223,4.375,60.73z"
	/>
<g>
	<g style="enable-background:new    ;">
		<g style="enable-background:new    ;">
			<g>
				<path style="fill:#FFFFFF;" d="M84.256,9.211l-2.68-0.169c-2.443-0.127-4.439,0.402-5.869,1.662
					c-7.546,6.652,3.61,31.115,24.918,54.641c21.309,23.524,44.702,37.206,52.248,30.553c1.466-1.291,2.226-3.256,2.343-5.754
					l0.061-1.482l0.039-2.639c0.023,2.772-0.702,4.932-2.256,6.301c-7.216,6.361-29.582-6.719-49.957-29.213
					S72.062,17.226,79.277,10.867c1.501-1.323,3.658-1.805,6.315-1.536L84.256,9.211"/>
				<path style="fill:#FFFFFF;" d="M66.331,10.775c-0.153,0.114-0.303,0.233-0.446,0.36c-1.004,0.885-1.71,2.056-2.134,3.474
					c1.131-0.158,2.268-0.293,3.406-0.402c0.411-1.374,1.094-2.507,2.066-3.363c0.139-0.123,0.283-0.238,0.433-0.348
					C68.544,10.563,67.436,10.657,66.331,10.775"/>
				<path style="fill:#FFFFFF;" d="M63.282,19.029c0.083,2.1,0.515,4.482,1.272,7.093c1.124-0.276,2.25-0.532,3.381-0.769
					c-0.733-2.528-1.152-4.836-1.233-6.868C65.56,18.643,64.418,18.824,63.282,19.029"/>
				<path style="fill:#FFFFFF;" d="M66.75,32.248c1.223,2.919,2.753,6.027,4.566,9.271c1.055-0.434,2.11-0.854,3.167-1.259
					c-1.755-3.141-3.237-6.149-4.421-8.976C68.955,31.586,67.851,31.909,66.75,32.248"/>
				<path style="fill:#FFFFFF;" d="M76.126,49.431c2.244,3.424,4.751,6.942,7.497,10.499c0.927-0.624,1.852-1.239,2.774-1.845
					c-2.658-3.444-5.086-6.85-7.258-10.166C78.136,48.411,77.131,48.916,76.126,49.431"/>
				<path style="fill:#FFFFFF;" d="M89.104,66.703c1.427,1.683,2.903,3.369,4.425,5.05c1.719,1.898,3.451,3.738,5.188,5.517
					c0.771-0.803,1.536-1.602,2.293-2.396c-1.681-1.722-3.357-3.504-5.022-5.341c-1.474-1.628-2.903-3.26-4.284-4.89
					C90.842,65.322,89.975,66.007,89.104,66.703"/>
				<path style="fill:#FFFFFF;" d="M105.444,83.833c3.271,3.036,6.524,5.829,9.707,8.35c0.604-0.955,1.195-1.912,1.772-2.869
					c-3.082-2.442-6.231-5.147-9.398-8.086C106.84,82.094,106.147,82.962,105.444,83.833"/>
				<path style="fill:#FFFFFF;" d="M97.428,106.496c3.09,2.621,6.142,5.037,9.122,7.229c0.984-1.242,1.945-2.502,2.885-3.771
					c-2.917-2.143-5.902-4.508-8.927-7.074C99.498,104.094,98.471,105.299,97.428,106.496"/>
				<path style="fill:#FFFFFF;" d="M70.625,9.308c-0.368,0.029-0.724,0.075-1.067,0.136c1.072-0.105,2.146-0.185,3.222-0.238
					c0.507-0.091,1.041-0.145,1.6-0.162L70.625,9.308"/>
				<path style="fill:#FFFFFF;" d="M59.121,11.283c-1.289,0.322-2.404,0.882-3.324,1.693c-9.084,8.006,4.345,37.453,29.995,65.771
					c22.232,24.545,46.348,40.186,58.295,38.704c0.307-0.787,0.602-1.58,0.885-2.379c-11.741,1.457-35.441-13.914-57.29-38.036
					C62.476,49.207,49.278,20.269,58.205,12.4c1.001-0.881,2.238-1.462,3.68-1.756L59.121,11.283"/>
				<path style="fill:#FFFFFF;" d="M117.645,121.037c2.737,1.578,5.358,2.906,7.831,3.963c0.858-1.318,1.684-2.656,2.476-4.016
					c-2.418-1.033-4.984-2.332-7.662-3.877C119.437,118.434,118.555,119.744,117.645,121.037"/>
				<path style="fill:#FFFFFF;" d="M45.997,16.077c-0.178,0.131-0.349,0.27-0.515,0.414c-2.43,2.142-3.344,5.729-2.916,10.378
					c1.162-0.551,2.335-1.073,3.521-1.568c-0.42-4.565,0.477-8.089,2.864-10.192c0.163-0.144,0.331-0.279,0.505-0.408
					C48.292,15.126,47.14,15.586,45.997,16.077"/>
				<path style="fill:#FFFFFF;" d="M133.294,127.137c4.687,0.971,8.442,0.488,10.892-1.672c0.146-0.129,0.287-0.262,0.422-0.402
					c0.599-1.092,1.167-2.195,1.705-3.316c-0.133,0.137-0.271,0.27-0.414,0.396c-2.407,2.119-6.095,2.596-10.7,1.641
					C134.59,124.916,133.956,126.033,133.294,127.137"/>
				<path style="fill:#FFFFFF;" d="M135.111,138.299c0.221-0.195,0.43-0.404,0.627-0.621l2.003-2.33
					c-0.26,0.313-0.542,0.605-0.848,0.875C136.315,136.924,135.72,137.615,135.111,138.299"/>
				<path style="fill:#FFFFFF;" d="M32.506,23.772c-0.231,0.163-0.453,0.339-0.666,0.525c-0.082,0.073-0.162,0.146-0.24,0.222
					c0.738-0.543,1.485-1.069,2.238-1.578c0.078-0.074,0.157-0.147,0.238-0.219c0.292-0.258,0.604-0.492,0.931-0.706L32.506,23.772"
					/>
				<path style="fill:#FFFFFF;" d="M38.934,19.546c-0.483,0.272-0.931,0.59-1.343,0.952c-9.96,8.779,4.764,41.066,32.888,72.117
					c28.125,31.051,58.998,49.105,68.958,40.326c0.435-0.383,0.821-0.811,1.164-1.281l1.617-2.311
					c-0.38,0.57-0.825,1.08-1.334,1.529c-9.887,8.715-40.536-9.207-68.455-40.031C44.51,60.024,29.893,27.972,39.78,19.257
					c0.484-0.426,1.017-0.788,1.597-1.088L38.934,19.546"/>
				<path style="fill:#FFFFFF;" d="M66.644,99.287c3.924,4.25,7.893,8.246,11.843,11.957c0.769-0.734,1.535-1.473,2.299-2.215
					c-3.931-3.689-7.88-7.668-11.785-11.896C68.216,97.852,67.429,98.57,66.644,99.287"/>
				<path style="fill:#FFFFFF;" d="M87.783,119.471c3.884,3.23,7.701,6.143,11.389,8.701c0.742-0.758,1.474-1.523,2.196-2.299
					c-3.67-2.547-7.469-5.443-11.333-8.658C89.291,117.975,88.54,118.727,87.783,119.471"/>
				<path style="fill:#FFFFFF;" d="M107.089,133.236c3.467,2.018,6.76,3.654,9.815,4.875c0.718-0.768,1.421-1.551,2.109-2.346
					c-3.041-1.215-6.317-2.846-9.768-4.854C108.539,131.697,107.82,132.471,107.089,133.236"/>
				<path style="fill:#FFFFFF;" d="M123.667,140.205c2.644,0.541,5.003,0.635,7.014,0.25c0.699-0.773,1.379-1.561,2.041-2.359
					c-2.002,0.385-4.349,0.289-6.98-0.248C125.066,138.646,124.375,139.432,123.667,140.205"/>
				<path style="fill:#FFFFFF;" d="M29.61,27.274c-0.796,1.767-1.14,3.94-1.063,6.456c0.837-0.628,1.687-1.238,2.546-1.829
					c-0.077-2.504,0.266-4.667,1.058-6.425C31.293,26.055,30.446,26.654,29.61,27.274"/>
				<path style="fill:#FFFFFF;" d="M29.242,39.125c0.621,2.938,1.646,6.176,3.043,9.65c0.832-0.649,1.675-1.283,2.528-1.905
					c-1.391-3.456-2.41-6.679-3.028-9.603C30.926,37.869,30.078,38.488,29.242,39.125"/>
				<path style="fill:#FFFFFF;" d="M34.938,54.735c1.802,3.714,3.961,7.629,6.45,11.678c0.82-0.673,1.648-1.336,2.483-1.992
					c-2.476-4.029-4.625-7.924-6.417-11.621C36.604,53.432,35.766,54.078,34.938,54.735"/>
				<path style="fill:#FFFFFF;" d="M48.345,76.881c3.018,4.228,6.337,8.535,9.931,12.859c0.797-0.705,1.597-1.408,2.399-2.108
					c-3.575-4.301-6.879-8.589-9.881-12.795C49.972,75.512,49.156,76.194,48.345,76.881"/>
				<path style="fill:#FFFFFF;" d="M150.656,112.719c0.071-0.17,0.137-0.342,0.198-0.52l1.06-3.207
					c-0.101,0.338-0.216,0.666-0.346,0.979C151.284,110.891,150.98,111.809,150.656,112.719"/>
				<path style="fill:#FFFFFF;" d="M143.135,107.297c3.558,0.557,6.425,0.053,8.356-1.648c0.788-0.695,1.392-1.564,1.821-2.592
					c0.21-1.068,0.396-2.141,0.556-3.217c-0.415,0.994-1,1.836-1.763,2.51c-1.87,1.646-4.645,2.133-8.089,1.596
					C143.744,105.068,143.45,106.186,143.135,107.297"/>
				<path style="fill:#FFFFFF;" d="M63.816,110.418c1.521,1.564,3.045,3.09,4.569,4.572c0.625-0.559,1.254-1.127,1.887-1.699
					c0.64-0.582,1.279-1.168,1.917-1.756c-1.524-1.482-3.049-3.008-4.569-4.572c-0.64,0.586-1.28,1.17-1.92,1.752
					C65.066,109.289,64.439,109.857,63.816,110.418"/>
				<path style="fill:#FFFFFF;" d="M71.991,118.424c1.52,1.416,3.039,2.789,4.549,4.119c0.629-0.557,1.259-1.123,1.892-1.697
					c0.64-0.582,1.277-1.168,1.912-1.758c-1.511-1.33-3.029-2.703-4.549-4.119c-0.637,0.588-1.275,1.174-1.916,1.754
					C73.245,117.299,72.616,117.865,71.991,118.424"/>
				<path style="fill:#FFFFFF;" d="M79.865,125.402c1.5,1.262,2.99,2.475,4.468,3.643c0.63-0.555,1.262-1.119,1.896-1.693
					c0.64-0.582,1.276-1.17,1.908-1.764c-1.479-1.166-2.969-2.381-4.468-3.643c-0.633,0.594-1.271,1.18-1.911,1.762
					C81.125,124.281,80.494,124.846,79.865,125.402"/>
				<path style="fill:#FFFFFF;" d="M87.805,131.713c1.456,1.088,2.896,2.125,4.316,3.111c0.635-0.551,1.269-1.113,1.901-1.689
					c0.641-0.582,1.274-1.17,1.903-1.766c-1.421-0.986-2.861-2.023-4.316-3.113c-0.63,0.594-1.266,1.184-1.906,1.766
					C89.07,130.596,88.437,131.158,87.805,131.713"/>
				<path style="fill:#FFFFFF;" d="M36.779,77.031c1.041,1.59,2.13,3.196,3.263,4.815c0.613-0.572,1.237-1.146,1.869-1.721
					c0.64-0.582,1.285-1.16,1.935-1.734c-1.133-1.619-2.222-3.227-3.263-4.815c-0.651,0.572-1.297,1.148-1.938,1.73
					C38.014,75.881,37.391,76.457,36.779,77.031"/>
				<path style="fill:#FFFFFF;" d="M42.342,85.063c1.194,1.636,2.432,3.283,3.712,4.937c0.616-0.57,1.24-1.141,1.873-1.717
					c0.641-0.582,1.284-1.16,1.932-1.738c-1.281-1.655-2.519-3.302-3.713-4.938c-0.648,0.576-1.293,1.155-1.933,1.735
					C43.579,83.917,42.956,84.49,42.342,85.063"/>
				<path style="fill:#FFFFFF;" d="M48.212,92.744c1.327,1.662,2.696,3.326,4.104,4.992c0.618-0.564,1.243-1.135,1.876-1.711
					c0.64-0.582,1.282-1.162,1.927-1.744c-1.409-1.666-2.776-3.33-4.104-4.992c-0.646,0.578-1.29,1.158-1.929,1.74
					C49.454,91.605,48.829,92.176,48.212,92.744"/>
				<path style="fill:#FFFFFF;" d="M55.958,101.947c0.627,0.709,1.261,1.418,1.902,2.125c0.866,0.955,1.735,1.9,2.605,2.83
					c0.622-0.563,1.249-1.131,1.882-1.705c0.64-0.582,1.28-1.164,1.922-1.75c-0.871-0.93-1.739-1.875-2.605-2.832
					c-0.64-0.707-1.274-1.414-1.901-2.123c-0.643,0.582-1.285,1.164-1.925,1.744C57.204,100.814,56.578,101.383,55.958,101.947"/>
				<path style="fill:#FFFFFF;" d="M10.743,48.299c-11.515,27.612,71.318,118.97,98.479,108.615l3.612-1.695
					C80.052,166.617,2.763,69.463,12.107,46.195c0.169-0.421,0.482-0.942,0.689-1.345L10.743,48.299"/>
				<path style="fill:#FFFFFF;" d="M17.732,37.919c0.508-0.634,1.027-1.263,1.56-1.881l0.197-0.235L17.732,37.919"/>
				<path style="fill:#FFFFFF;" d="M82.288,138.672c3.714,2.703,7.314,5.063,10.741,7.045c0.898-0.625,1.793-1.277,2.687-1.953
					c-3.45-1.996-7.075-4.371-10.814-7.092C84.03,137.361,83.158,138.027,82.288,138.672"/>
				<path style="fill:#FFFFFF;" d="M99.55,149.129c3.171,1.469,6.128,2.537,8.809,3.17c0.938-0.609,1.868-1.248,2.789-1.91
					c-2.699-0.635-5.676-1.709-8.869-3.189C101.375,147.867,100.465,148.512,99.55,149.129"/>
				<path style="fill:#FFFFFF;" d="M112.542,152.936c2.357,0.137,4.405-0.184,6.082-0.998c0.964-0.609,1.917-1.246,2.858-1.912
					c-1.688,0.82-3.749,1.143-6.122,1.006C114.429,151.693,113.49,152.328,112.542,152.936"/>
				<path style="fill:#FFFFFF;" d="M54.253,135.604c3.623,3.291,7.217,6.311,10.726,9.023c0.809-0.426,1.625-0.869,2.447-1.336
					c-3.575-2.764-7.238-5.842-10.931-9.195C55.739,134.615,54.992,135.117,54.253,135.604"/>
				<path style="fill:#FFFFFF;" d="M19.292,36.039c-0.532,0.618-1.052,1.247-1.56,1.881l-0.682,0.865
					c-1.098,1.414-1.757,3.236-2.005,5.405c0.695-0.89,1.417-1.768,2.165-2.631c0.256-2.233,0.944-4.102,2.096-5.537
					C19.301,36.027,19.296,36.033,19.292,36.039"/>
				<path style="fill:#FFFFFF;" d="M19.351,63.559c1.505,3.517,3.375,7.256,5.582,11.154c0.722-0.812,1.466-1.621,2.232-2.427
					c-2.221-3.924-4.104-7.688-5.619-11.229C20.79,61.886,20.058,62.719,19.351,63.559"/>
				<path style="fill:#FFFFFF;" d="M31.206,84.86c2.752,4.119,5.816,8.341,9.161,12.607c0.762-0.754,1.541-1.51,2.335-2.275
					c-3.367-4.291-6.452-8.543-9.223-12.69C32.701,83.29,31.943,84.077,31.206,84.86"/>
				<path style="fill:#FFFFFF;" d="M91.084,159.855c0.681,0.182,1.345,0.334,1.988,0.457c1.467-0.451,2.926-0.957,4.374-1.52
					c-0.661-0.125-1.343-0.281-2.043-0.467C93.97,158.891,92.53,159.402,91.084,159.855"/>
				<path style="fill:#FFFFFF;" d="M94.32,160.514c0.62,0.084,1.217,0.139,1.796,0.16c1.497-0.447,2.983-0.949,4.458-1.51
					c-0.594-0.021-1.209-0.076-1.845-0.162C97.269,159.563,95.799,160.066,94.32,160.514"/>
				<path style="fill:#FFFFFF;" d="M97.055,160.682c0.553-0.012,1.087-0.053,1.597-0.127c1.523-0.449,3.034-0.953,4.532-1.514
					c-0.525,0.076-1.074,0.119-1.643,0.133C100.057,159.732,98.561,160.236,97.055,160.682"/>
				<path style="fill:#FFFFFF;" d="M99.895,160.297c0.044-0.012,0.088-0.025,0.133-0.037l5.136-1.705
					c-0.229,0.082-0.463,0.158-0.704,0.223C102.952,159.34,101.43,159.848,99.895,160.297"/>
				<path style="fill:#FFFFFF;" d="M5.789,64.655c0.073,0.663,0.173,1.348,0.301,2.053c0.592-1.392,1.239-2.772,1.94-4.139
					c-0.131-0.726-0.234-1.428-0.31-2.109C7.022,61.843,6.378,63.243,5.789,64.655"/>
				<path style="fill:#FFFFFF;" d="M6.442,68.413c0.17,0.735,0.366,1.491,0.588,2.266c0.602-1.352,1.257-2.694,1.967-4.027
					c-0.229-0.796-0.43-1.572-0.604-2.33C7.688,65.673,7.038,67.038,6.442,68.413"/>
				<path style="fill:#FFFFFF;" d="M7.565,72.421c0.261,0.8,0.547,1.618,0.858,2.452c0.615-1.31,1.284-2.613,2.006-3.91
					c-0.32-0.857-0.614-1.698-0.882-2.521C8.833,69.76,8.172,71.087,7.565,72.421"/>
				<path style="fill:#FFFFFF;" d="M9.208,76.882c0.351,0.859,0.726,1.734,1.125,2.624c0.635-1.263,1.322-2.523,2.06-3.78
					c-0.411-0.915-0.796-1.814-1.157-2.697C10.507,74.309,9.832,75.593,9.208,76.882"/>
				<path style="fill:#FFFFFF;" d="M6.473,57.233c-0.051,0.128-0.101,0.259-0.147,0.392c0.594-1.482,1.244-2.947,1.947-4.392
					c0.118-0.34,0.253-0.665,0.402-0.977L6.473,57.233"/>
				<path style="fill:#FFFFFF;" d="M6.083,58.419c-0.13,0.494-0.231,1.013-0.303,1.558c0.588-1.459,1.232-2.903,1.932-4.327
					c0.074-0.56,0.177-1.093,0.311-1.601C7.322,55.487,6.675,56.946,6.083,58.419"/>
				<path style="fill:#FFFFFF;" d="M5.658,61.401c-0.023,0.585-0.019,1.192,0.013,1.823c0.588-1.426,1.231-2.839,1.929-4.236
					c-0.033-0.646-0.038-1.273-0.013-1.873C6.889,58.528,6.247,59.957,5.658,61.401"/>
				<path style="fill:#FFFFFF;" d="M29.728,109.236c3.021,3.836,6.287,7.705,9.774,11.557c0.11,0.121,0.22,0.242,0.331,0.363
					c0.641-0.582,1.297-1.178,1.967-1.783c-0.112-0.123-0.224-0.248-0.336-0.371c-3.553-3.924-6.882-7.867-9.96-11.777
					C30.894,107.904,30.302,108.574,29.728,109.236"/>
				<path style="fill:#FFFFFF;" d="M3.496,66.24c-2.742,11.063,9.782,35.446,31.127,59.012
					c21.507,23.744,44.852,38.805,56.213,37.096l2.785-0.51c-11.415,2.201-35.535-13.232-57.735-37.74
					C13.858,99.775,1.045,74.604,4.264,63.525L3.496,66.24"/>
				<path style="fill:#FFFFFF;" d="M0.981,83.526l-0.037,2.462c0.063,10.125,10.115,28.417,26.179,46.153
					c16.216,17.902,33.688,29.863,43.84,30.867l1.17,0.104l2.843,0.176c-10.493-0.525-29.219-13.174-46.57-32.332
					C11.161,111.918,0.542,92.266,1.051,81.872L0.981,83.526"/>
				<path style="fill:#FFFFFF;" d="M41.343,139.568c1.539,1.447,3.073,2.842,4.599,4.178c0.953-0.396,1.929-0.83,2.927-1.305
					c-1.599-1.4-3.207-2.859-4.818-4.377C43.123,138.604,42.22,139.105,41.343,139.568"/>
				<path style="fill:#FFFFFF;" d="M49.534,146.795c1.508,1.24,3.003,2.422,4.479,3.541c1.087-0.283,2.192-0.613,3.313-0.99
					c-1.546-1.17-3.112-2.408-4.694-3.709C51.579,146.066,50.546,146.451,49.534,146.795"/>
				<path style="fill:#FFFFFF;" d="M57.244,152.701c1.445,1.021,2.867,1.977,4.259,2.863c1.212-0.197,2.437-0.443,3.672-0.74
					c-1.459-0.928-2.949-1.928-4.463-2.998C59.542,152.164,58.385,152.457,57.244,152.701"/>
				<path style="fill:#FFFFFF;" d="M64.745,157.529c1.343,0.773,2.653,1.475,3.924,2.1c1.331-0.129,2.67-0.309,4.015-0.543
					c-1.332-0.656-2.704-1.391-4.112-2.201C67.288,157.15,66.011,157.365,64.745,157.529"/>
				<path style="fill:#FFFFFF;" d="M13.426,106.383c1.033,1.602,2.125,3.225,3.276,4.863c0.466-0.934,0.976-1.889,1.53-2.859
					c-1.206-1.717-2.352-3.418-3.433-5.094C14.294,104.338,13.837,105.369,13.426,106.383"/>
				<path style="fill:#FFFFFF;" d="M19.049,114.504c1.226,1.656,2.508,3.328,3.844,5.004c0.568-0.797,1.177-1.617,1.825-2.463
					c-1.4-1.758-2.743-3.508-4.027-5.246C20.101,112.721,19.553,113.623,19.049,114.504"/>
				<path style="fill:#FFFFFF;" d="M25.153,122.293c1.394,1.68,2.839,3.367,4.333,5.049c0.679-0.664,1.393-1.363,2.141-2.088
					c-1.566-1.764-3.081-3.529-4.541-5.293C26.404,120.764,25.76,121.541,25.153,122.293"/>
				<path style="fill:#FFFFFF;" d="M33.331,131.545c1.531,1.629,3.07,3.207,4.609,4.734c0.819-0.518,1.668-1.072,2.545-1.66
					c-1.613-1.602-3.225-3.256-4.831-4.961C34.848,130.32,34.073,130.949,33.331,131.545"/>
			</g>
		</g>
	</g>
</g>
<path style="fill:#199AD7;" d="M442.478,74.3c17.803,0.002,25.666,54.721-1.012,54.114C415.419,128.639,421.864,74.386,442.478,74.3
	z M463.229,101.244c-0.197-20.108-9.332-33.122-22.188-33.122c-11.125,0-21.174,14.93-21.168,33.639
	c0.004,19.297,6.74,33.654,20.871,33.65C460.45,135.406,463.401,118.752,463.229,101.244z"/>
<path style="fill:#199AD7;" d="M532.101,78.496c0.986-2.379-0.135-4.734-1.705-6.104l-11.959,5.16l3.344-37.938
	c-0.809-0.584-2.49-1.123-3.479-0.045c-3.947,4.375-5.408,35.852-6.662,40.158l-20.037,10.883c0.428,2.131-0.357,4.037,2.109,4.061
	c4.15,0.045,12.273-5.789,16.447-7.022c-1.93,11.374-5.656,33.631,2.355,43.165c9.646,11.443,28.852-4.24,32.104-14.268
	l-2.938-1.549l0.561-6.236c-4.061-2.625-3.693,9.84-9.895,15.211c-6.119,5.299-11.436,8.592-16.332,0.471
	c-5.383-8.926-0.383-27.102,0.537-38.813C521.735,83.251,526.917,80.875,532.101,78.496z"/>
<path style="fill:#199AD7;" d="M462.405,129.447c6.281-0.785,8.234-1.168,13.059-1.078l-1.504,43.953l6.662,1.727
	c0.045-0.045,1.033-38.813,1.279-46.732c5.387-1.84,10.971-2.178,18.309-4.555l-0.291-8.123l-18.869,2.963
	c0-9.086-2.49-31.59,0.09-38.59c2.152-5.834,7.357-7.941,13.035-2.916c6.438,8.727,7.717-4.174-0.563-7.473
	c-18.598-7.447-19.854,13.238-19.563,25.309c0.18,7.449,0.627,15.906,1.1,24.635c-2.76,0.986-11.24,0.672-12.855,2.176
	L462.405,129.447z"/>
<path style="fill:#199AD7;" d="M416.81,28.869c-10.455-7.473-30.332-1.393-33.496,11.957c-1.705,15.346,5.182,19.924,10.947,32.15
	c10.389,22.055,24.904,57.391,14.271,81.061c-9.088,20.236-48.969,11.998-28.945-32.465c-5.098,3.963-4.857,3.832-10.234,6.771
	c-1.629,6.57-5.592,27.695,5.137,37.209c7.563,7.418,20.305,8.635,30.277,3.717c12.098-5.967,14.602-20.213,14.713-33.877
	c0.135-14.449-2.467-28.809-6.373-39.217c-4.732-12.588-8.277-22.661-15.568-33.969c-6.283-9.76-12.52-24.791,4.396-27.551
	c19.205-3.141,18.42,13.596,23.379,18.375C429.126,57.63,434.646,41.589,416.81,28.869z"/>
<path style="fill:#2F509E;" d="M182.78,44.751c-0.27,22.279-0.27,64.211,0.112,85.997c2.222,5.16,10.568,3.074,13.573,1.076
	l0.495-87.229c4.98-0.65,30.759-0.404,37.804-0.674c10.724,0.158,10.858-14.762-0.584-15.189
	c-16.131,0.359-69.326-0.313-83.101,0.539c-9.603,1.1-9.221,15.525-0.382,16.221C154.668,45.021,179.415,44.392,182.78,44.751z"/>
<path style="fill:#2F509E;" d="M289.597,79.462c22.85,0.006,22.35,42.84,0.684,43.006
	C262.614,122.684,265.758,79.455,289.597,79.462z M307.28,33.886c0,8.391-0.082,35.598-0.082,41.072
	c0,2.311-10.256-14.311-32.412-3.621c-19.485,9.402-21.915,52.067,2.59,59.926c25.371,8.139,30.172-9.111,30.822-4.961
	c-0.152,2.273,0.002,1.947,0.082,3.916c1.549,1.594,8.326,1.943,9.133,0.373c0.09-39.936,0.09-64.862,0-97.081
	C316.202,32.501,308.403,32.853,307.28,33.886z"/>
<path style="fill:#2F509E;" d="M254.752,114.121c2.849,4.307,2.311,4.4,4.084,7.451c-5.542,4.307-4.757,3.77-11.756,7.605
	c-8.794,4.801-19.183,6.08-26.632,3.881c-7.448-2.199-13.259-7.83-17.409-16.893c-4.309-9.379-5.049-18.084-2.198-26.094
	c2.849-8.032,8.413-14.313,16.737-18.846c8.031-4.396,15.772-5.451,23.199-3.164c7.425,2.289,13.259,8.033,17.476,17.254
	c0.247,0.561,0.629,1.414,1.101,2.535l-47.615,25.702c3.208,5.922,7.59,10.004,12.458,11.416
	C236.197,127.094,245.981,121.479,254.752,114.121z M208.988,105.803l38.75-21.375c-2.602-4.443-6.939-7.414-10.125-8.625
	c-4.914-1.863-11.317-0.451-16.5,2.375c-4.688,2.557-9.262,8.23-11.125,12.875C208.149,95.697,207.104,100.732,208.988,105.803z"/>
<path style="fill:#2F509E;" d="M375.503,114.121c-8.771,7.357-18.555,12.973-30.555,10.848c-4.869-1.412-9.252-5.494-12.459-11.416
	l47.615-25.702c-0.473-1.121-0.854-1.975-1.102-2.535c-4.217-9.221-10.051-14.965-17.477-17.254
	c-7.426-2.287-15.168-1.232-23.197,3.164c-8.324,4.533-13.889,10.814-16.738,18.846c-2.85,8.01-2.109,16.715,2.199,26.094
	c4.15,9.063,9.961,14.693,17.408,16.893c7.451,2.199,17.838,0.92,26.633-3.881c0.561-0.307,1.055-0.578,1.521-0.834
	c5.377-2.939,5.137-2.809,10.234-6.771C377.813,118.521,378.353,118.428,375.503,114.121z M329.739,105.803
	c-1.885-5.07-0.84-10.105,1-14.75c1.863-4.645,6.436-10.319,11.125-12.875c5.184-2.826,11.586-4.238,16.5-2.375
	c3.186,1.211,7.523,4.182,10.125,8.625L329.739,105.803z"/>
</svg>
